<svg width="41.319336" height="40.879883" viewBox="0 0 41.3193 40.8799" fill="none" xmlns="http://www.w3.org/2000/svg" xmlns:xlink="http://www.w3.org/1999/xlink">
	<desc>
			Created with Pixso.
	</desc>
	<defs/>
	<path d="M27.4111 39.8799L12.3428 39.8799C9.59863 39.8799 7.375 37.6555 7.375 34.9124L7.375 10.3889" stroke="#40DDB6" stroke-opacity="1.000000" stroke-width="2.000000"/>
	<path d="M4.02637 1L29.4971 1C32.168 1 34.333 3.16479 34.333 5.83521L34.333 16.7141" stroke="#40DDB6" stroke-opacity="1.000000" stroke-width="2.000000"/>
	<path d="M1 9.54419L1 4.17944C1 2.42358 2.42383 1 4.17969 1C5.93555 1 7.3584 2.42358 7.3584 4.17944L7.3584 9.54419L7.3584 9.54419L1 9.54419Z" stroke="#40DDB6" stroke-opacity="1.000000" stroke-width="2.000000"/>
	<path d="M38.6885 27.7935L38.1846 30.3174L35.6611 30.8206L33.5205 32.249L31.3809 30.8206L28.8564 30.3174L28.3535 27.7935L26.9248 25.6533L28.3535 23.5132L28.8564 20.9893L31.3809 20.4861L33.5205 19.0576L35.6611 20.4861L38.1846 20.9893L38.6885 23.5132L40.1172 25.6533L38.6885 27.7935Z" stroke="#40DDB6" stroke-opacity="1.000000" stroke-width="2.000000"/>
	<path d="M37.1641 30.1741L37.1641 38.9502L33.5215 36.5095L29.8779 38.9502L29.8779 30.1741" stroke="#40DDB6" stroke-opacity="1.000000" stroke-width="2.000000"/>
	<path d="M13.999 8.33521L25.9873 8.33521" stroke="#40DDB6" stroke-opacity="1.000000" stroke-width="2.000000"/>
	<path d="M13.999 14.4954L25.9873 14.4954" stroke="#40DDB6" stroke-opacity="1.000000" stroke-width="2.000000"/>
	<path d="M13.999 20.5889L25.9873 20.5889" stroke="#40DDB6" stroke-opacity="1.000000" stroke-width="2.000000"/>
	<path d="M13.999 26.55L21.9473 26.55" stroke="#40DDB6" stroke-opacity="1.000000" stroke-width="2.000000"/>
	<path d="M13.999 32.6436L21.9473 32.6436" stroke="#40DDB6" stroke-opacity="1.000000" stroke-width="2.000000"/>
</svg>
