<svg width="41.774414" height="40.433350" viewBox="0 0 41.7744 40.4333" fill="none" xmlns="http://www.w3.org/2000/svg" xmlns:xlink="http://www.w3.org/1999/xlink">
	<desc>
			Created with Pixso.
	</desc>
	<defs/>
	<path d="M38.1514 14.064L37.6582 17.8962L33.8262 18.3892L30.7686 20.7495L27.7109 18.3892L23.8789 17.8962L23.3857 14.064L21.0254 11.0063L23.3857 7.94922L23.8789 4.11719L27.7109 3.62427L30.7686 1.26343L33.8262 3.62427L37.6582 4.11719L38.1514 7.94922L40.5117 11.0063L38.1514 14.064Z" stroke="#40DDB6" stroke-opacity="1.000000" stroke-width="2.000000"/>
	<path d="M36.0684 17.5837L36.0684 29.0989L30.7676 25.5476L25.4678 29.0989L25.4678 17.5837" stroke="#40DDB6" stroke-opacity="1.000000" stroke-width="2.000000"/>
	<path d="M22.8877 20.8303C21.2861 23.0908 18.6504 24.5513 15.6963 24.5513C11.0977 24.5513 7.27344 21.0146 6.91309 16.4304L5.87891 3.23169L21.79 3.23169" stroke="#40DDB6" stroke-opacity="1.000000" stroke-width="2.000000"/>
	<path d="M6.67285 16.4531L4.46484 16.4531C3.38477 16.4531 2.47559 15.645 2.34863 14.5728L1.01465 8.25781C0.864258 6.99023 1.85547 5.87573 3.13184 5.87573L6.07715 5.87573" stroke="#40DDB6" stroke-opacity="1.000000" stroke-width="2.000000"/>
	<path d="M17.8672 24.1174C17.8672 24.1174 18.3301 29.4724 21.1064 31.8518" stroke="#40DDB6" stroke-opacity="1.000000" stroke-width="2.000000"/>
	<path d="M13.6787 24.1174C13.6787 24.1174 13.2158 29.4724 10.4395 31.8518" stroke="#40DDB6" stroke-opacity="1.000000" stroke-width="2.000000"/>
	<path d="M7.5752 36.1379L7.5752 33.7249C7.5752 32.5378 8.46289 31.5757 9.55859 31.5757L21.9863 31.5757C23.082 31.5757 23.9697 32.5378 23.9697 33.7249L23.9697 36.1379L23.9697 36.1379L7.5752 36.1379Z" stroke="#40DDB6" stroke-opacity="1.000000" stroke-width="2.000000"/>
	<path d="M5.70215 39.4333L5.70215 38.2871C5.70215 37.1001 6.58984 36.1379 7.68555 36.1379L23.8604 36.1379C24.9551 36.1379 25.8428 37.1001 25.8428 38.2871L25.8428 39.4333L5.70215 39.4333Z" stroke="#40DDB6" stroke-opacity="1.000000" stroke-width="2.000000"/>
	<path d="M25.8438 39.4331L25.8438 38.2869C25.8438 37.0999 24.9561 36.1377 23.8604 36.1377L7.68555 36.1377C6.59082 36.1377 5.70312 37.0999 5.70312 38.2869L5.70312 39.4331L25.8438 39.4331Z" stroke="#40DDB6" stroke-opacity="1.000000" stroke-width="2.000000"/>
	<path d="M26.6367 13.0815L29.1484 14.9326L35.1641 7.26416" stroke="#40DDB6" stroke-opacity="1.000000" stroke-width="2.000000"/>
</svg>
