<svg width="123.000000" height="30.000000" viewBox="0 0 123 30" fill="none" xmlns="http://www.w3.org/2000/svg" xmlns:xlink="http://www.w3.org/1999/xlink">
	<desc>
			Created with Pixso.
	</desc>
	<defs/>
	<path d="M57.41 24.1L54.17 24.1L54.17 6.58L57.41 6.58L57.41 13.34C58.09 12 59.31 11.33 61.18 11.33C63.87 11.33 65.93 13.32 65.93 16.46L65.93 24.1L62.69 24.1L62.69 17.26C62.69 15.1 61.61 14.16 60.01 14.16C58.64 14.16 57.41 15.1 57.41 17.26L57.41 24.1ZM91.54 24.1L88.3 24.1L88.3 6.58L91.54 6.58L91.54 13.34C92.21 12 93.43 11.33 95.31 11.33C97.99 11.33 100.06 13.32 100.06 16.46L100.06 24.1L96.82 24.1L96.82 17.26C96.82 15.1 95.74 14.16 94.13 14.16C92.76 14.16 91.54 15.1 91.54 17.26L91.54 24.1ZM44.56 24.1L41.2 24.1L41.2 7.3L46.62 7.27C50.39 7.25 52.69 9.1 52.69 12.38C52.69 15.05 51.2 16.68 48.66 17.23L53.36 24.1L49.4 24.1L45.83 18.77C45.59 18.41 45.4 18.05 45.18 17.54L44.56 17.54L44.56 24.1ZM86.93 24.1L85.15 24.1C82.68 24.1 81.34 22.94 81.34 20.23L81.34 14.38L79.58 14.38L79.58 11.62L81.34 11.62L81.34 9.1L84.58 8.76L84.58 11.62L87.22 11.62L87.22 14.38L84.58 14.38L84.58 20.06C84.58 20.86 84.96 21.22 85.58 21.22L86.93 21.22L86.93 24.1ZM44.56 10.32L44.56 14.52L46.43 14.52C48.25 14.52 49.28 13.78 49.28 12.41C49.28 11.06 48.25 10.32 46.43 10.32L44.56 10.32ZM105.11 24.1L101.87 24.1L101.87 11.62L105.06 11.62L105.06 13.44C105.71 12.05 106.96 11.33 108.88 11.33C110.63 11.33 112.12 12.17 112.93 13.68C113.77 12.17 114.97 11.33 117.16 11.33C119.85 11.33 121.91 13.32 121.91 16.46L121.91 24.1L118.67 24.1L118.67 17.26C118.67 15.1 117.64 14.16 116.17 14.16C114.66 14.16 113.63 14.86 113.63 17.26L113.63 24.1L110.39 24.1L110.39 17.26C110.39 15.1 109.31 14.16 107.7 14.16C106.33 14.16 105.11 15.1 105.11 17.26L105.11 24.1ZM73.95 24.89C72.89 27.41 71.33 29.11 68.41 29.11C67.76 29.11 66.89 29.06 66.25 28.87L66.73 25.78C67.21 25.9 67.66 25.94 68.19 25.94C69.44 25.94 70.23 25.15 70.59 24.05L70.76 23.52L65.81 11.62L69.73 11.62L72.15 18.74C72.37 19.34 72.56 20.09 72.68 20.74C72.8 20.09 72.99 19.34 73.21 18.74L75.63 11.62L79.47 11.62L73.95 24.89Z" fill="#121212" fill-opacity="1.000000" fill-rule="evenodd"/>
	<path d="M14.14 15.72C13.76 23.06 7.59 28.91 0 29L0 1C7.59 1.08 13.76 6.93 14.14 14.27C14.52 7.02 20.54 1.23 28 1L28 28.99C20.54 28.76 14.52 22.97 14.14 15.72Z" fill="#FF6428" fill-opacity="1.000000" fill-rule="evenodd"/>
</svg>
