<svg width="20.534180" height="19.118164" viewBox="0 0 20.5342 19.1182" fill="none" xmlns="http://www.w3.org/2000/svg" xmlns:xlink="http://www.w3.org/1999/xlink">
	<desc>
			Created with Pixso.
	</desc>
	<defs/>
	<path id="Vector" d="M20.5342 9.6167C20.5342 4.30615 15.9375 0 10.2676 0C4.59766 0 0 4.30615 0 9.6167C0 14.4165 3.75391 18.3955 8.66309 19.1172L8.66309 12.3975L6.05566 12.3975L6.05566 9.6167L8.66309 9.6167L8.66309 7.49805C8.66309 5.08838 10.1963 3.75635 12.541 3.75635C13.665 3.75635 14.8398 3.94434 14.8398 3.94434L14.8398 6.31104L13.5449 6.31104C12.2695 6.31104 11.8711 7.05225 11.8711 7.81348L11.8711 9.6167L14.7188 9.6167L14.2637 12.3975L11.8711 12.3975L11.8711 19.1182C16.7803 18.3965 20.5342 14.418 20.5342 9.6167Z" fill="#FFFFFF" fill-opacity="1.000000" fill-rule="evenodd"/>
</svg>
