<svg width="19.872070" height="19.122559" viewBox="0 0 19.8721 19.1226" fill="none" xmlns="http://www.w3.org/2000/svg" xmlns:xlink="http://www.w3.org/1999/xlink">
	<desc>
			Created with Pixso.
	</desc>
	<defs/>
	<path id="Vector" d="M14.0762 1.59326C15.1729 1.59668 16.2246 2.01709 17 2.76367C17.7754 3.51025 18.2129 4.52197 18.2158 5.57764L18.2158 13.5449C18.2129 14.6006 17.7754 15.6123 17 16.3584C16.2246 17.105 15.1729 17.5259 14.0762 17.5288L5.7959 17.5288C4.69922 17.5259 3.64746 17.105 2.87207 16.3584C2.09668 15.6123 1.65918 14.6006 1.65625 13.5449L1.65625 5.57764C1.65918 4.52197 2.09668 3.51025 2.87207 2.76367C3.64746 2.01709 4.69922 1.59668 5.7959 1.59326L14.0762 1.59326ZM14.0762 0L5.7959 0C2.6084 0 0 2.50977 0 5.57764L0 13.5449C0 16.6128 2.6084 19.1226 5.7959 19.1226L14.0762 19.1226C17.2637 19.1226 19.8721 16.6128 19.8721 13.5449L19.8721 5.57764C19.8721 2.50977 17.2637 0 14.0762 0Z" fill="#FFFFFF" fill-opacity="1.000000" fill-rule="nonzero"/>
	<path id="Vector" d="M15.3174 5.57715C15.0723 5.57715 14.832 5.50732 14.6279 5.37598C14.4238 5.24463 14.2646 5.05811 14.1699 4.83936C14.0762 4.62109 14.0518 4.38086 14.0996 4.14893C14.1475 3.91699 14.2656 3.7041 14.4395 3.53711C14.6133 3.37012 14.834 3.25586 15.0752 3.20996C15.3164 3.16406 15.5664 3.1875 15.793 3.27783C16.0195 3.36865 16.2139 3.52148 16.3506 3.71826C16.4873 3.91455 16.5596 4.146 16.5596 4.38232C16.5596 4.53906 16.5283 4.69482 16.4658 4.83984C16.4033 4.98486 16.3125 5.11719 16.1963 5.22803C16.0811 5.33887 15.9443 5.42725 15.793 5.48682C15.6426 5.54688 15.4805 5.57764 15.3174 5.57715ZM9.93555 6.37402C10.5908 6.37402 11.2314 6.56055 11.7764 6.91113C12.3203 7.26123 12.7451 7.75879 12.9961 8.34131C13.2461 8.92383 13.3125 9.56445 13.1846 10.1826C13.0566 10.8013 12.7412 11.3691 12.2783 11.8149C11.8145 12.2603 11.2246 12.564 10.582 12.687C9.93945 12.8101 9.27344 12.7471 8.66797 12.5059C8.06348 12.2642 7.5459 11.856 7.18164 11.3315C6.81836 10.8076 6.62402 10.1914 6.62402 9.56104C6.625 8.71582 6.97363 7.90576 7.59473 7.30811C8.21582 6.71094 9.05762 6.37451 9.93555 6.37402ZM9.93555 4.78027C8.95312 4.78027 7.99316 5.06055 7.17578 5.58594C6.3584 6.11133 5.72168 6.85791 5.3457 7.73145C4.96973 8.60498 4.87109 9.56641 5.06348 10.4937C5.25488 11.4209 5.72852 12.2729 6.42285 12.9414C7.11719 13.6099 8.00293 14.0654 8.9668 14.25C9.93066 14.4341 10.9287 14.3394 11.8369 13.9775C12.7451 13.6157 13.5205 13.0029 14.0664 12.2168C14.6123 11.4307 14.9043 10.5063 14.9043 9.56104C14.9043 8.29297 14.3809 7.07715 13.4482 6.18066C12.5166 5.28418 11.2529 4.78027 9.93555 4.78027Z" fill="#FFFFFF" fill-opacity="1.000000" fill-rule="nonzero"/>
</svg>
