<svg width="19.417969" height="19.418457" viewBox="0 0 19.418 19.4185" fill="none" xmlns="http://www.w3.org/2000/svg" xmlns:xlink="http://www.w3.org/1999/xlink">
	<desc>
			Created with Pixso.
	</desc>
	<defs/>
	<path id="Vector" d="M17.8652 0L1.65918 0C0.773438 0 0 0.637207 0 1.51221L0 17.7544C0 18.6343 0.773438 19.4185 1.65918 19.4185L17.8604 19.4185C18.751 19.4185 19.418 18.6289 19.418 17.7544L19.418 1.51221C19.4238 0.637207 18.751 0 17.8652 0ZM6.01953 16.186L3.2373 16.186L3.2373 7.53662L6.01953 7.53662L6.01953 16.186ZM4.72461 6.22168L4.70508 6.22168C3.81445 6.22168 3.23828 5.55908 3.23828 4.72949C3.23828 3.88477 3.8291 3.2373 4.73926 3.2373C5.65039 3.2373 6.20703 3.87988 6.22656 4.72949C6.22656 5.55908 5.65039 6.22168 4.72461 6.22168ZM16.1865 16.186L13.4043 16.186L13.4043 11.457C13.4043 10.3237 12.999 9.5498 11.9932 9.5498C11.2236 9.5498 10.7686 10.0698 10.5664 10.5767C10.4902 10.7588 10.4707 11.0063 10.4707 11.2598L10.4707 16.186L7.68848 16.186L7.68848 7.53662L10.4707 7.53662L10.4707 8.74023C10.875 8.16406 11.5078 7.33447 12.9795 7.33447C14.8057 7.33447 16.1865 8.53809 16.1865 11.1328L16.1865 16.186Z" fill="#FFFFFF" fill-opacity="1.000000" fill-rule="nonzero"/>
</svg>
