<svg width="19.168945" height="15.324707" viewBox="0 0 19.1689 15.3247" fill="none" xmlns="http://www.w3.org/2000/svg" xmlns:xlink="http://www.w3.org/1999/xlink">
	<desc>
			Created with Pixso.
	</desc>
	<defs/>
	<path id="Vector" d="M19.1689 1.81592C18.4502 2.12793 17.6895 2.3335 16.9111 2.42627C17.7295 1.94775 18.3447 1.18701 18.6416 0.287109C17.8682 0.739258 17.0234 1.05664 16.1426 1.2251C15.7725 0.836914 15.3271 0.52832 14.833 0.317871C14.3398 0.106934 13.8076 -0.000976562 13.2715 0C11.0977 0 9.33887 1.73193 9.33887 3.86719C9.33789 4.16406 9.37207 4.45996 9.44043 4.74902C7.88184 4.67578 6.35645 4.27881 4.95996 3.58252C3.56445 2.88672 2.3291 1.90674 1.33301 0.706543C0.984375 1.29443 0.799805 1.96582 0.798828 2.6499C0.798828 3.99072 1.49902 5.17627 2.55566 5.87061C1.92969 5.85547 1.31641 5.68994 0.767578 5.3877L0.767578 5.43555C0.767578 7.31104 2.125 8.87158 3.92285 9.22656C3.58496 9.31689 3.23633 9.3623 2.88672 9.3623C2.63867 9.36279 2.39062 9.33887 2.14746 9.29053C2.64648 10.8271 4.10059 11.9443 5.82324 11.9761C4.42383 13.0542 2.70508 13.6367 0.938477 13.6323C0.625 13.6318 0.311523 13.6133 0 13.5767C1.79785 14.7236 3.88672 15.3306 6.01953 15.3247C13.2627 15.3247 17.2197 9.43018 17.2197 4.31787C17.2197 4.15039 17.2148 3.98291 17.207 3.81934C17.9756 3.27344 18.6396 2.59473 19.1689 1.81592Z" fill="#FFFFFF" fill-opacity="1.000000" fill-rule="nonzero"/>
</svg>
