<svg width="210.130859" height="36.000000" viewBox="0 0 210.131 36" fill="none" xmlns="http://www.w3.org/2000/svg" xmlns:xlink="http://www.w3.org/1999/xlink">
	<desc>
			Created with Pixso.
	</desc>
	<defs/>
	<path id="TransitFlow" d="M121.497 9.93943Q121.631 9.99707 121.79 9.99707L124.94 9.99707Q125.152 9.99707 125.321 9.91232Q125.415 9.86523 125.496 9.79199Q125.589 9.70525 125.644 9.59897Q125.723 9.44499 125.723 9.25L125.723 6.84766Q125.723 6.66007 125.65 6.50808Q125.594 6.39301 125.496 6.29834Q125.393 6.19492 125.268 6.13861Q125.119 6.07129 124.94 6.07129L121.79 6.07129Q121.657 6.07129 121.54 6.1163Q121.396 6.17238 121.278 6.29834Q121.21 6.37107 121.164 6.45585Q121.073 6.62717 121.073 6.84766L121.073 9.25Q121.073 9.47818 121.171 9.65019Q121.215 9.72664 121.278 9.79199Q121.377 9.88834 121.497 9.93943ZM133.702 27.3848Q135.02 28 136.881 28L139.488 28Q139.647 28 139.782 27.9424Q139.901 27.8913 140.001 27.7949Q140.074 27.7219 140.122 27.6351Q140.213 27.4693 140.213 27.2529L140.213 25.0264Q140.213 24.8924 140.169 24.7752Q140.116 24.6362 140.001 24.521Q139.894 24.4147 139.766 24.3616Q139.638 24.3086 139.488 24.3086L137.298 24.3086Q136.495 24.3086 136.075 23.9074Q135.962 23.8001 135.877 23.6641Q135.474 23.0195 135.474 21.877L135.474 15.937L139.224 15.937Q139.367 15.937 139.49 15.8885Q139.62 15.8373 139.73 15.7319Q139.803 15.6589 139.851 15.5721Q139.942 15.4063 139.942 15.1899L139.942 13.1465Q139.942 12.9234 139.845 12.7573Q139.798 12.6781 139.73 12.6118Q139.614 12.4966 139.475 12.4438Q139.358 12.3994 139.224 12.3994L135.474 12.3994L135.474 7.44824Q135.474 7.22511 135.377 7.05905Q135.33 6.97982 135.262 6.91357Q135.189 6.84058 135.102 6.79267Q134.936 6.70117 134.72 6.70117L131.783 6.70117Q131.652 6.70117 131.535 6.74149Q131.384 6.79372 131.256 6.91357Q131.167 6.99314 131.113 7.09146Q131.028 7.24653 131.028 7.44824L131.028 12.3994L128.692 12.3994Q128.476 12.3994 128.31 12.4909Q128.223 12.5388 128.15 12.6118Q128.081 12.6781 128.035 12.7573Q127.938 12.9234 127.938 13.1465L127.938 15.1899Q127.938 15.4063 128.029 15.5721Q128.077 15.6589 128.15 15.7319Q128.215 15.795 128.292 15.8387Q128.464 15.937 128.692 15.937L131.028 15.937L131.028 22.2432Q131.028 24.1914 131.702 25.4805Q132.046 26.1318 132.553 26.6111Q133.05 27.0804 133.702 27.3848ZM161.437 27.9017Q161.609 28 161.838 28L164.841 28Q165.008 28 165.147 27.9359Q165.256 27.8853 165.346 27.7949Q165.419 27.7219 165.467 27.6351Q165.558 27.4693 165.558 27.2529L165.558 7.44824Q165.558 7.22511 165.461 7.05905Q165.414 6.97982 165.346 6.91357Q165.249 6.81326 165.131 6.76032Q164.999 6.70117 164.841 6.70117L161.838 6.70117Q161.621 6.70117 161.455 6.79267Q161.369 6.84058 161.296 6.91357Q161.237 6.97244 161.195 7.04157Q161.091 7.21326 161.091 7.44824L161.091 27.2529Q161.091 27.4811 161.189 27.6531Q161.232 27.7296 161.296 27.7949Q161.361 27.858 161.437 27.9017ZM44.3186 27.9017Q44.4906 28 44.7188 28L48.0513 28Q48.2863 28 48.4579 27.8958Q48.5271 27.8538 48.5859 27.7949Q48.6589 27.7219 48.7068 27.6351Q48.7983 27.4693 48.7983 27.2529L48.7983 11.1689L54.2329 11.1689Q54.4679 11.1689 54.6396 11.0647Q54.7087 11.0227 54.7676 10.9639Q54.8739 10.8576 54.927 10.7292Q54.98 10.6012 54.98 10.4512L54.98 7.74854Q54.98 7.52541 54.8826 7.35934Q54.8362 7.28011 54.7676 7.21387Q54.7013 7.14526 54.6221 7.09881Q54.456 7.00146 54.2329 7.00146L38.5078 7.00146Q38.3578 7.00146 38.2298 7.05446Q38.1014 7.10756 37.9951 7.21387Q37.9362 7.27273 37.8943 7.34186Q37.79 7.51355 37.79 7.74854L37.79 10.4512Q37.79 10.6104 37.8477 10.7449Q37.8988 10.8641 37.9951 10.9639Q38.0949 11.0602 38.2141 11.1113Q38.3486 11.1689 38.5078 11.1689L43.9717 11.1689L43.9717 27.2529Q43.9717 27.4811 44.07 27.6531Q44.1137 27.7296 44.1768 27.7949Q44.2421 27.858 44.3186 27.9017ZM143.48 27.8911Q143.659 28 143.904 28L147.083 28Q147.318 28 147.49 27.8958Q147.559 27.8538 147.618 27.7949Q147.691 27.7219 147.739 27.6351Q147.83 27.4693 147.83 27.2529L147.83 20.1411L156.678 20.1411Q156.906 20.1411 157.078 20.0428Q157.155 19.9991 157.22 19.936Q157.326 19.8297 157.379 19.7014Q157.432 19.5733 157.432 19.4233L157.432 16.8672Q157.432 16.6441 157.335 16.478Q157.289 16.3988 157.22 16.3325Q157.147 16.2595 157.06 16.2116Q156.894 16.1201 156.678 16.1201L147.83 16.1201L147.83 11.0518L157.279 11.0518Q157.495 11.0518 157.661 10.9603Q157.748 10.9124 157.821 10.8394Q157.894 10.7664 157.941 10.6795Q158.033 10.5137 158.033 10.2974L158.033 7.74854Q158.033 7.52541 157.936 7.35934Q157.889 7.28011 157.821 7.21387Q157.748 7.14087 157.661 7.09296Q157.495 7.00146 157.279 7.00146L143.904 7.00146Q143.671 7.00146 143.498 7.10319Q143.421 7.14845 143.355 7.21387Q143.296 7.27273 143.254 7.34186Q143.15 7.51355 143.15 7.74854L143.15 27.2529Q143.15 27.4811 143.248 27.6531Q143.292 27.7296 143.355 27.7949Q143.413 27.8505 143.48 27.8911ZM70.2537 27.6851Q71.5134 28.3003 73.1028 28.3003Q74.3333 28.3003 75.2488 28Q76.1643 27.6997 76.8235 27.209Q77.4827 26.7109 77.8709 26.1396L77.8709 27.2529Q77.8709 27.4811 77.9691 27.6531Q78.0128 27.7296 78.0759 27.7949Q78.1757 27.8913 78.2949 27.9424Q78.4294 28 78.5886 28L81.533 28Q81.7679 28 81.9396 27.8958Q82.0088 27.8538 82.0676 27.7949Q82.1406 27.7219 82.1885 27.6351Q82.28 27.4693 82.28 27.2529L82.28 17.9805Q82.28 16.75 81.8919 15.688Q81.7101 15.1873 81.4352 14.7444Q81.123 14.2414 80.6907 13.813Q79.8777 13 78.53 12.5532Q77.1824 12.0991 75.2927 12.0991Q73.4617 12.0991 72.2019 12.5532Q70.9421 13 70.1292 13.6738Q69.3235 14.3477 68.928 15.0435Q68.5398 15.7319 68.5398 16.2373Q68.5238 16.3851 68.5688 16.5111Q68.6064 16.6161 68.6863 16.7061Q68.7162 16.7372 68.7501 16.7633Q68.9233 16.8965 69.199 16.8965L72.0481 16.8965Q72.2718 16.8965 72.4439 16.8023Q72.6213 16.7053 72.7439 16.5083Q72.9122 16.1866 73.1493 15.928Q73.3765 15.6802 73.6668 15.4902Q74.2673 15.1021 75.2634 15.1021Q76.6111 15.1021 77.1458 15.7319Q77.6878 16.3618 77.6878 17.5264L77.6878 18.0684L73.762 18.6396Q70.9421 19.0864 69.2136 20.3169Q68.3681 20.9214 67.9379 21.7432Q67.4924 22.5944 67.4924 23.6787Q67.4924 24.314 67.6739 24.8924Q67.8606 25.4875 68.2395 26.0225Q68.3612 26.1915 68.4961 26.3492Q69.1972 27.1691 70.2537 27.6851ZM86.3346 27.9424Q86.4691 28 86.6283 28L89.8143 28Q89.9568 28 90.0801 27.9515Q90.2106 27.9003 90.3197 27.7949Q90.3927 27.7219 90.4406 27.6351Q90.5321 27.4693 90.5321 27.2529L90.5321 19.0571Q90.5321 17.564 91.269 16.6979Q91.3165 16.6421 91.3671 16.5889Q91.5975 16.3464 91.8708 16.1702Q92.5961 15.7026 93.6229 15.7026Q94.8018 15.7026 95.5253 16.2766Q95.7008 16.4159 95.8495 16.5889Q96.6185 17.4678 96.6185 19.0571L96.6185 27.2529Q96.6185 27.4693 96.71 27.6351Q96.7579 27.7219 96.8309 27.7949Q96.8963 27.858 96.9727 27.9017Q97.1447 28 97.3729 28L100.552 28Q100.701 28 100.831 27.9491Q100.961 27.8978 101.072 27.7949Q101.164 27.7082 101.219 27.6019Q101.299 27.4479 101.299 27.2529L101.299 18.8813Q101.299 16.7207 100.53 15.2046Q99.936 14.0229 98.9952 13.2817Q98.729 13.0719 98.4349 12.8975Q98.3522 12.8479 98.2677 12.8014Q96.9919 12.0991 95.3295 12.0991Q93.5643 12.0991 92.3338 12.729Q91.1034 13.3589 90.3197 14.3184L90.3197 13.1465Q90.3197 12.9234 90.2223 12.7573Q90.1759 12.6781 90.1073 12.6118Q90.041 12.5432 89.9618 12.4968Q89.7957 12.3994 89.5726 12.3994L86.6283 12.3994Q86.4783 12.3994 86.3502 12.4524Q86.2219 12.5055 86.1156 12.6118Q86.0567 12.6707 86.0147 12.7398Q85.9105 12.9115 85.9105 13.1465L85.9105 27.2529Q85.9105 27.4811 86.0088 27.6531Q86.0525 27.7296 86.1156 27.7949Q86.2154 27.8913 86.3346 27.9424ZM107.852 27.8682Q109.192 28.3003 111.053 28.3003Q113.389 28.3003 114.993 27.6851Q116.597 27.0698 117.44 25.9785Q117.829 25.4709 118.038 24.8977Q118.282 24.2302 118.282 23.4736Q118.282 22.9239 118.146 22.41Q118.014 21.9105 117.755 21.4448Q117.234 20.5 116.033 19.7822Q114.832 19.0571 112.789 18.6982Q111.082 18.3687 110.24 18.0684Q109.398 17.7681 109.127 17.4092Q108.951 17.1706 108.893 16.9062Q108.863 16.7728 108.863 16.6328Q108.863 16.3264 108.975 16.069Q109.105 15.7728 109.383 15.5415Q109.91 15.1021 110.899 15.1021Q111.712 15.1021 112.217 15.3438Q112.73 15.5781 113.104 15.8931Q113.484 16.208 113.843 16.4497Q113.869 16.4754 113.897 16.498Q113.966 16.5526 114.048 16.5889Q114.173 16.6328 114.319 16.6328L116.993 16.6328Q117.091 16.6328 117.18 16.6051Q117.338 16.5561 117.469 16.4204Q117.574 16.3155 117.62 16.1891Q117.667 16.0597 117.652 15.9077Q117.623 15.4316 117.183 14.7871Q116.751 14.1426 115.909 13.5273Q115.074 12.9121 113.829 12.5093Q112.584 12.0991 110.928 12.0991Q108.768 12.0991 107.325 12.8096Q105.889 13.5127 105.157 14.5967Q104.562 15.4708 104.45 16.4029Q104.424 16.6188 104.424 16.8379Q104.424 18.127 104.988 19.0425Q105.56 19.958 106.695 20.5586Q107.838 21.1592 109.463 21.5181Q111.17 21.877 112.042 22.1772Q112.913 22.4775 113.228 22.8438Q113.316 22.9433 113.379 23.0565Q113.543 23.351 113.543 23.7373Q113.543 24.0665 113.411 24.3288Q113.239 24.6675 112.847 24.8945Q112.159 25.2974 111.17 25.2974Q110.328 25.2974 109.771 25.063Q109.222 24.8213 108.797 24.4771Q108.38 24.1328 107.991 23.8618Q107.903 23.7373 107.808 23.708Q107.72 23.6787 107.632 23.6787L104.717 23.6787Q104.483 23.6787 104.241 23.8911Q104.129 23.9901 104.075 24.1144Q104.013 24.2571 104.029 24.4331Q104.058 24.8799 104.461 25.5244Q104.871 26.1689 105.692 26.7988Q106.519 27.4287 107.852 27.8682ZM172.307 27.48Q173.991 28.3003 176.482 28.3003Q178.943 28.3003 180.62 27.48Q181.762 26.9189 182.534 26.0345Q182.9 25.6145 183.183 25.1216Q184.07 23.5908 184.157 21.5474Q184.223 20.9468 184.223 20.1851Q184.223 19.4233 184.157 18.8521Q184.07 16.7793 183.139 15.2632Q182.827 14.7548 182.431 14.3246Q181.644 13.472 180.525 12.9268Q178.847 12.0991 176.482 12.0991Q174.079 12.0991 172.395 12.9268Q171.297 13.4637 170.519 14.2988Q170.109 14.7395 169.787 15.2632Q168.864 16.7793 168.769 18.8521Q168.74 19.4233 168.74 20.1851Q168.74 20.9468 168.769 21.5474Q168.864 23.5908 169.743 25.1216Q170.04 25.6345 170.426 26.0684Q171.192 26.9296 172.307 27.48ZM56.1546 27.9424Q56.2891 28 56.4483 28L59.5977 28Q59.8259 28 59.9979 27.9017Q60.0743 27.858 60.1397 27.7949Q60.2127 27.7219 60.2606 27.6351Q60.3521 27.4693 60.3521 27.2529L60.3521 19.2988Q60.3521 18.1059 60.9375 17.395Q61.0134 17.3028 61.0992 17.2188Q61.2053 17.1146 61.3227 17.0252Q62.0391 16.479 63.1719 16.479L65.8086 16.479Q65.9678 16.479 66.1023 16.4214Q66.2215 16.3703 66.3213 16.2739Q66.3943 16.2009 66.4422 16.1141Q66.5337 15.9483 66.5337 15.7319L66.5337 13.1465Q66.5337 12.9234 66.4364 12.7573Q66.3899 12.6781 66.3213 12.6118Q66.215 12.5055 66.0867 12.4524Q65.9586 12.3994 65.8086 12.3994L64.5196 12.3994Q63.084 12.3994 61.9854 12.9121Q61.4174 13.1751 60.9407 13.5532Q60.5015 13.9016 60.1397 14.3477L60.1397 13.1465Q60.1397 13.0453 60.1126 12.9519Q60.0612 12.7751 59.9126 12.6265Q59.7845 12.4941 59.629 12.4389Q59.5178 12.3994 59.3926 12.3994L56.4483 12.3994Q56.3146 12.3994 56.1983 12.4444Q56.0534 12.5005 55.9356 12.6265Q55.8159 12.759 55.766 12.914Q55.7305 13.0246 55.7305 13.1465L55.7305 27.2529Q55.7305 27.4811 55.8288 27.6531Q55.8725 27.7296 55.9356 27.7949Q56.0354 27.8913 56.1546 27.9424ZM121.585 27.9424Q121.719 28 121.878 28L124.881 28Q125.116 28 125.288 27.8958Q125.357 27.8538 125.416 27.7949Q125.489 27.7219 125.537 27.6351Q125.628 27.4693 125.628 27.2529L125.628 13.1465Q125.628 12.9234 125.531 12.7573Q125.484 12.6781 125.416 12.6118Q125.35 12.5432 125.27 12.4968Q125.104 12.3994 124.881 12.3994L121.878 12.3994Q121.728 12.3994 121.6 12.4524Q121.472 12.5055 121.366 12.6118Q121.307 12.6707 121.265 12.7398Q121.161 12.9115 121.161 13.1465L121.161 27.2529Q121.161 27.4811 121.259 27.6531Q121.302 27.7296 121.366 27.7949Q121.465 27.8913 121.585 27.9424ZM190.561 27.7949Q190.788 28 191.213 28L193.52 28Q193.944 28 194.179 27.7949Q194.258 27.7251 194.321 27.6427Q194.449 27.4742 194.508 27.2529L197.482 18.3687L200.39 27.2529Q200.51 27.5716 200.733 27.7807Q200.741 27.7879 200.749 27.7949Q200.99 28 201.408 28L203.722 28Q204.14 28 204.367 27.7949Q204.413 27.7519 204.453 27.7041Q204.612 27.5157 204.682 27.2529L209.003 13.3589Q209.032 13.2124 209.032 13.0586Q209.032 12.9288 208.987 12.8175Q208.938 12.6964 208.835 12.5972Q208.735 12.4941 208.614 12.4448Q208.503 12.3994 208.373 12.3994L205.729 12.3994Q205.457 12.3994 205.261 12.5212Q205.198 12.5602 205.143 12.6118Q204.923 12.8169 204.894 13L202.162 22.2725L199.255 13.0586Q199.189 12.8535 198.962 12.6265Q198.942 12.6062 198.921 12.5877Q198.704 12.3994 198.324 12.3994L196.61 12.3994Q196.233 12.3994 196.011 12.5855Q195.987 12.605 195.966 12.6265Q195.739 12.8535 195.68 13.0586L192.773 22.2725L190.041 13Q189.982 12.8169 189.77 12.6118Q189.748 12.5901 189.724 12.5706Q189.518 12.3994 189.169 12.3994L186.532 12.3994Q186.411 12.3994 186.305 12.4388Q186.173 12.4877 186.064 12.5972Q185.97 12.6904 185.923 12.8028Q185.873 12.9202 185.873 13.0586Q185.873 13.1083 185.879 13.1572Q185.892 13.2597 185.932 13.3589L190.224 27.2529Q190.341 27.5825 190.561 27.7949ZM178.356 24.4297Q177.645 24.9971 176.482 24.9971Q175.326 24.9971 174.604 24.4379Q174.406 24.2845 174.24 24.0889Q173.479 23.1733 173.42 21.4009Q173.391 20.9468 173.391 20.1997Q173.391 19.4526 173.42 18.9985Q173.479 17.2627 174.24 16.3325Q174.424 16.1105 174.648 15.9415Q175.361 15.4023 176.482 15.4023Q177.611 15.4023 178.314 15.9501Q178.527 16.1162 178.701 16.3325Q179.448 17.2627 179.514 18.9985Q179.543 19.4526 179.543 20.1997Q179.543 20.9468 179.514 21.4009Q179.448 23.1733 178.701 24.0889Q178.544 24.2793 178.356 24.4297ZM76.0023 24.7977Q75.2504 25.1802 74.304 25.1802Q73.7929 25.1802 73.3205 25.0452Q73.2106 25.0138 73.1028 24.9751Q72.577 24.7796 72.2435 24.4104Q72.2147 24.3785 72.1873 24.3452Q72.0489 24.1744 71.9661 23.9799Q71.843 23.6907 71.843 23.3491Q71.843 23.1187 71.9088 22.9089Q72.0648 22.4119 72.5901 22.0308Q73.3445 21.4888 74.9631 21.2178L77.7537 20.771L77.7537 21.2764Q77.7537 22.6021 77.2996 23.4736Q76.9655 24.1199 76.4431 24.5204Q76.2668 24.6555 76.0691 24.7627Q76.0359 24.7806 76.0023 24.7977Z" fill="#FFFFFF" fill-opacity="1.000000" fill-rule="evenodd"/>
	<rect id="Pattern" y="7.891113" width="9.782609" height="9.782609" transform="rotate(-30 0.000000 7.891113)" fill="#FFB82B" fill-opacity="1.000000"/>
	<rect id="Pattern" x="4.130859" y="18.000000" width="10.000000" height="10.000000" fill="#FFB82B" fill-opacity="1.000000"/>
	<rect id="Pattern" x="18.130859" y="5.000000" width="10.000000" height="10.000000" fill="#FFB82B" fill-opacity="1.000000"/>
	<rect id="Pattern" x="18.130859" y="18.000000" width="10.000000" height="10.000000" fill="#FFB82B" fill-opacity="1.000000"/>
</svg>
