<svg width="63.000000" height="63.000000" viewBox="0 0 63 63" fill="none" xmlns="http://www.w3.org/2000/svg" xmlns:xlink="http://www.w3.org/1999/xlink">
	<desc>
			Created with Pixso.
	</desc>
	<defs/>
	<circle id="Background" cx="31.500000" cy="31.500000" r="31.500000" fill="#111C55" fill-opacity="1.000000"/>
	<circle id="Background" cx="31.500000" cy="31.500000" r="31.000000" stroke="#273270" stroke-opacity="1.000000" stroke-width="1.000000"/>
	<path id="Vector" d="M23.585 22.2271C23.4629 22.2803 23.3525 22.3555 23.2617 22.4487C23.1719 22.542 23.1016 22.6514 23.0566 22.7705C23.0127 22.8896 22.9932 23.0156 23.002 23.1416C23.1367 25.3013 23.7705 30.5718 26.8057 33.8584C30.4404 37.8179 35.1748 39.1826 40.0312 38.981C40.292 38.9663 40.5371 38.8599 40.7168 38.6826C40.8965 38.5054 40.9971 38.271 41 38.0269L41 34.5674C40.9971 34.2446 40.8779 33.9321 40.6631 33.6802C40.4473 33.4282 40.1484 33.2515 39.8125 33.1777L37.3809 32.6738C37.0791 32.6138 36.7666 32.6396 36.4814 32.748C36.1963 32.8564 35.9531 33.0425 35.7822 33.2822L35.2441 34.0454C35.1943 34.1152 35.1211 34.167 35.0352 34.1909C34.9492 34.2153 34.8574 34.2109 34.7754 34.1787C33.5381 33.6782 28.6084 31.5186 28.0664 27.8755C28.0557 27.8052 28.0674 27.7334 28.1006 27.6694C28.1328 27.605 28.1855 27.5518 28.251 27.5151L29.2266 26.9575C29.4941 26.8018 29.7051 26.5732 29.8291 26.3022C29.9531 26.0312 29.9863 25.731 29.9219 25.4419L29.3877 23.1235C29.3096 22.7988 29.1143 22.5093 28.834 22.3047C28.5537 22.0996 28.2061 21.9922 27.8516 22.0005L23.9736 22.1406C23.8398 22.145 23.707 22.1743 23.585 22.2271Z" stroke="#F6B426" stroke-opacity="1.000000" stroke-width="1.000000"/>
</svg>
